<svg xmlns="http://www.w3.org/2000/svg" viewBox="0 0 640 420" role="img" aria-labelledby="title desc">
  <title id="title">Feijao Carioca - 1kg</title>
  <desc id="desc">Ilustracao de um pacote de feijao carioca.</desc>
  <defs>
    <linearGradient id="bg" x1="0%" y1="0%" x2="100%" y2="100%">
      <stop offset="0%" stop-color="#f4eadf"/>
      <stop offset="100%" stop-color="#ddc1a2"/>
    </linearGradient>
  </defs>
  <rect width="640" height="420" fill="url(#bg)"/>
  <ellipse cx="320" cy="340" rx="165" ry="28" fill="#c7a382"/>
  <rect x="220" y="92" width="200" height="256" rx="28" fill="#fff6ea" stroke="#8c5e3b" stroke-width="8"/>
  <rect x="238" y="128" width="164" height="92" rx="20" fill="#8c5e3b"/>
  <g fill="#d7b08a">
    <path d="M280 164c0-16 10-26 22-26s22 10 22 26-10 26-22 26-22-10-22-26z"/>
    <path d="M338 164c0-16 10-26 22-26s22 10 22 26-10 26-22 26-22-10-22-26z"/>
    <path d="M309 188c0-16 10-26 22-26s22 10 22 26-10 26-22 26-22-10-22-26z"/>
  </g>
  <text x="320" y="286" text-anchor="middle" font-size="34" font-family="Arial, Helvetica, sans-serif" font-weight="700" fill="#6c4022">FEIJAO 1KG</text>
  <text x="320" y="322" text-anchor="middle" font-size="20" font-family="Arial, Helvetica, sans-serif" fill="#8c5e3b">Carioca selecionado</text>
</svg>
